<mxfile host="app.diagrams.net" modified="2023-11-24T00:24:17.018Z" agent="Mozilla/5.0 (Windows NT 10.0; Win64; x64; rv:120.0) Gecko/20100101 Firefox/120.0" etag="QAI58IJ3xiS7ASdowhHj" version="22.1.3" type="device">
  <diagram name="Страница 1" id="86V94EqFgmShpXzJ3njb">
    <mxGraphModel dx="2022" dy="652" grid="1" gridSize="10" guides="1" tooltips="1" connect="1" arrows="1" fold="1" page="1" pageScale="1" pageWidth="827" pageHeight="1169" math="0" shadow="0">
      <root>
        <mxCell id="0" />
        <mxCell id="1" parent="0" />
        <mxCell id="IbZE5fqZqbvFQEdEYz_s-1" value="Bat" style="rounded=0;whiteSpace=wrap;html=1;fillColor=#FFEB33;strokeColor=#d6b656;" parent="1" vertex="1">
          <mxGeometry x="240" y="120" width="250" height="40" as="geometry" />
        </mxCell>
        <mxCell id="IbZE5fqZqbvFQEdEYz_s-2" value="&lt;div&gt;- IdBat: string;&lt;/div&gt;&lt;div&gt;- Name: string;&lt;br&gt;&lt;/div&gt;&lt;div&gt;- FlightTime: string;&lt;br&gt;&lt;/div&gt;&lt;div&gt;- Birthday: string;&lt;br&gt;&lt;/div&gt;&lt;div&gt;- NumberOfMeals: string;&lt;/div&gt;&lt;div&gt;- NumberOfSleepCycles: string;&lt;/div&gt;&lt;div&gt;- Gender: string;&lt;/div&gt;&lt;div&gt;- WinterHibernation: string;&lt;/div&gt;&lt;div&gt;- Nickname: string;&lt;/div&gt;&lt;div&gt;- Size: string;&lt;/div&gt;&lt;div&gt;- Weight: string;&lt;/div&gt;&lt;div&gt;- Type: string;&lt;/div&gt;" style="rounded=0;whiteSpace=wrap;html=1;fillColor=#FFF199;strokeColor=#d6b656;align=left;" parent="1" vertex="1">
          <mxGeometry x="240" y="160" width="250" height="210" as="geometry" />
        </mxCell>
        <mxCell id="IbZE5fqZqbvFQEdEYz_s-3" value="&lt;div&gt;+ setIdBat::(string) void;&lt;br&gt;&lt;/div&gt;&lt;div&gt;+ setName:(string) void;&lt;/div&gt;&lt;div&gt;+ setFlightTime:(string) void;&lt;/div&gt;&lt;div&gt;+ setBirthday:(string) void;&lt;/div&gt;&lt;div&gt;+ setNumberOfMeals:(string) void;&lt;/div&gt;&lt;div&gt;+ setNumberOfSleepCycles:(string) void;&lt;/div&gt;&lt;div&gt;+ setGender:(string) void;&lt;/div&gt;&lt;div&gt;+ setWinterHibernation:(string) void;&lt;/div&gt;&lt;div&gt;+ setNickname:(string) void;&lt;/div&gt;&lt;div&gt;+ setSize:(string) void;&lt;/div&gt;&lt;div&gt;+ setWeight:(string) void;&lt;/div&gt;&lt;div&gt;+ setType:(string) void;&lt;/div&gt;&lt;div&gt;+ getIdBat:() void;&lt;/div&gt;&lt;div&gt;+ getName() void;&lt;/div&gt;&lt;div&gt;+ getFlightTime() void;&lt;/div&gt;&lt;div&gt;+ getBirthday() void;&lt;/div&gt;&lt;div&gt;+ getNumberOfMeals() void;&lt;/div&gt;&lt;div&gt;+ getNimberOfSleepCycles() void;&lt;/div&gt;&lt;div&gt;+ getGender() void;&lt;/div&gt;&lt;div&gt;+ getWinterHibernation() void;&lt;/div&gt;&lt;div&gt;+ getNickname() void;&lt;/div&gt;&lt;div&gt;+ getSize() void;&lt;/div&gt;&lt;div&gt;+ getWeight() void;&lt;/div&gt;&lt;div&gt;+ getType() void;&lt;/div&gt;" style="rounded=0;whiteSpace=wrap;html=1;fillColor=#FFFFCC;strokeColor=#d6b656;align=left;" parent="1" vertex="1">
          <mxGeometry x="240" y="370" width="250" height="380" as="geometry" />
        </mxCell>
        <mxCell id="H9dcIihokSanlBxwFiB3-1" value="InsectBat" style="rounded=0;whiteSpace=wrap;html=1;fillColor=#FFEB33;strokeColor=#d6b656;" vertex="1" parent="1">
          <mxGeometry x="-100" y="40" width="250" height="40" as="geometry" />
        </mxCell>
        <mxCell id="H9dcIihokSanlBxwFiB3-4" value="-TypeFood: string;&lt;br&gt;&lt;div&gt;-AmountOfFood: string;&lt;/div&gt;&lt;div&gt;-InsectWeight: string;&lt;/div&gt;&lt;div&gt;-AreaOf Residence: string;&lt;br&gt;&lt;/div&gt;" style="rounded=0;whiteSpace=wrap;html=1;fillColor=#FFF199;strokeColor=#d6b656;align=left;" vertex="1" parent="1">
          <mxGeometry x="-100" y="80" width="250" height="70" as="geometry" />
        </mxCell>
        <mxCell id="H9dcIihokSanlBxwFiB3-5" value="&lt;div&gt;+ setTypeFood:(string) void;&lt;br&gt;&lt;/div&gt;&lt;div&gt;+ setAmountOfFood:(string) void;&lt;/div&gt;&lt;div&gt;+ setInsectWeight:(string) void;&lt;/div&gt;&lt;div&gt;+ setAreaOfResidence:(sring) void;&lt;br&gt;&lt;/div&gt;&lt;div&gt;+ getTypeFood:() void;&lt;/div&gt;&lt;div&gt;+ getAmountOfFood:() void;&lt;/div&gt;&lt;div&gt;+ getTypeFood:() void;&lt;/div&gt;&lt;div&gt;+ getAreaOfResidence:() void;&lt;br&gt;&lt;/div&gt;" style="rounded=0;whiteSpace=wrap;html=1;fillColor=#FFFFCC;strokeColor=#d6b656;align=left;" vertex="1" parent="1">
          <mxGeometry x="-100" y="150" width="250" height="130" as="geometry" />
        </mxCell>
        <mxCell id="H9dcIihokSanlBxwFiB3-6" value="FruitBat" style="rounded=0;whiteSpace=wrap;html=1;fillColor=#FFEB33;strokeColor=#d6b656;" vertex="1" parent="1">
          <mxGeometry x="-100" y="307.5" width="250" height="40" as="geometry" />
        </mxCell>
        <mxCell id="H9dcIihokSanlBxwFiB3-7" value="-TypeFood: string;&lt;br&gt;&lt;div&gt;-AmountOfFood: string;&lt;/div&gt;&lt;div&gt;-FruitWeight: string;&lt;/div&gt;&lt;div&gt;-AreaOf Residence: string;&lt;/div&gt;" style="rounded=0;whiteSpace=wrap;html=1;fillColor=#FFF199;strokeColor=#d6b656;align=left;" vertex="1" parent="1">
          <mxGeometry x="-100" y="347.5" width="250" height="72.5" as="geometry" />
        </mxCell>
        <mxCell id="H9dcIihokSanlBxwFiB3-8" value="&lt;div&gt;+ setTypeFood:(string) void;&lt;br&gt;&lt;/div&gt;&lt;div&gt;+ setAmountOfFood:(string) void;&lt;/div&gt;&lt;div&gt;+ setFruitWeight:(string) void;&lt;/div&gt;&lt;div&gt;+ setAreaOf Residence:(string) void;&lt;/div&gt;&lt;div&gt;+ getTypeFood:() void;&lt;/div&gt;&lt;div&gt;+ getAmountOfFood:() void;&lt;/div&gt;&lt;div&gt;+ getFruitFood:() void;&lt;/div&gt;&lt;div&gt;+ getAreaOf Residence:() void;&lt;/div&gt;" style="rounded=0;whiteSpace=wrap;html=1;fillColor=#FFFFCC;strokeColor=#d6b656;align=left;" vertex="1" parent="1">
          <mxGeometry x="-100" y="420" width="250" height="120" as="geometry" />
        </mxCell>
        <mxCell id="H9dcIihokSanlBxwFiB3-15" value="BloodBat" style="rounded=0;whiteSpace=wrap;html=1;fillColor=#FFEB33;strokeColor=#d6b656;" vertex="1" parent="1">
          <mxGeometry x="-100" y="570" width="250" height="40" as="geometry" />
        </mxCell>
        <mxCell id="H9dcIihokSanlBxwFiB3-16" value="-TypeFood: string;&lt;br&gt;&lt;div&gt;-AmountOfBlood: string;&lt;/div&gt;&lt;div&gt;-AreaOf Residence: string;&lt;/div&gt;" style="rounded=0;whiteSpace=wrap;html=1;fillColor=#FFF199;strokeColor=#d6b656;align=left;" vertex="1" parent="1">
          <mxGeometry x="-100" y="610" width="250" height="72.5" as="geometry" />
        </mxCell>
        <mxCell id="H9dcIihokSanlBxwFiB3-17" value="&lt;div&gt;+ setTypeFood:(string) void;&lt;br&gt;&lt;/div&gt;&lt;div&gt;+ setAmountOfBlood:(string) void;&lt;/div&gt;&lt;div&gt;+ setAreaOf Residence:(string) void;&lt;/div&gt;&lt;div&gt;+ getTypeFood:() void;&lt;/div&gt;&lt;div&gt;+ getAmountOfBlood:() void;&lt;/div&gt;&lt;div&gt;+ getAreaOf Residence:() void;&lt;/div&gt;" style="rounded=0;whiteSpace=wrap;html=1;fillColor=#FFFFCC;strokeColor=#d6b656;align=left;" vertex="1" parent="1">
          <mxGeometry x="-100" y="682.5" width="250" height="120" as="geometry" />
        </mxCell>
        <mxCell id="H9dcIihokSanlBxwFiB3-18" value="" style="endArrow=classic;html=1;rounded=0;exitX=1;exitY=0.75;exitDx=0;exitDy=0;entryX=0.001;entryY=0.421;entryDx=0;entryDy=0;entryPerimeter=0;strokeColor=#999900;" edge="1" parent="1" source="H9dcIihokSanlBxwFiB3-5" target="IbZE5fqZqbvFQEdEYz_s-2">
          <mxGeometry width="50" height="50" relative="1" as="geometry">
            <mxPoint x="160" y="190" as="sourcePoint" />
            <mxPoint x="210" y="248" as="targetPoint" />
          </mxGeometry>
        </mxCell>
        <mxCell id="H9dcIihokSanlBxwFiB3-19" value="" style="endArrow=classic;html=1;rounded=0;exitX=1;exitY=0.75;exitDx=0;exitDy=0;entryX=-0.001;entryY=0.367;entryDx=0;entryDy=0;entryPerimeter=0;strokeColor=#999900;" edge="1" parent="1">
          <mxGeometry width="50" height="50" relative="1" as="geometry">
            <mxPoint x="150" y="480.12" as="sourcePoint" />
            <mxPoint x="239.75" y="479.58000000000004" as="targetPoint" />
          </mxGeometry>
        </mxCell>
        <mxCell id="H9dcIihokSanlBxwFiB3-20" value="" style="endArrow=classic;html=1;rounded=0;exitX=1;exitY=0.25;exitDx=0;exitDy=0;entryX=-0.003;entryY=0.901;entryDx=0;entryDy=0;entryPerimeter=0;strokeColor=#999900;" edge="1" parent="1" source="H9dcIihokSanlBxwFiB3-17" target="IbZE5fqZqbvFQEdEYz_s-3">
          <mxGeometry width="50" height="50" relative="1" as="geometry">
            <mxPoint x="180" y="680" as="sourcePoint" />
            <mxPoint x="230" y="630" as="targetPoint" />
          </mxGeometry>
        </mxCell>
      </root>
    </mxGraphModel>
  </diagram>
</mxfile>
